<svg width="16" height="16" viewBox="0 0 16 16" fill="none" xmlns="http://www.w3.org/2000/svg">
<g opacity="0.9">
<path fill-rule="evenodd" clip-rule="evenodd" d="M5.15569 5.57185C5.32918 5.39836 5.32918 5.11707 5.15569 4.94358L4.84155 4.62945C4.66806 4.45596 4.38678 4.45596 4.21329 4.62945L1.47488 7.36786C1.45773 7.38063 1.4413 7.3948 1.42573 7.41037L1.1116 7.7245C0.938104 7.89799 0.938104 8.17928 1.1116 8.35277L4.15777 11.3989C4.33126 11.5724 4.61255 11.5724 4.78604 11.3989L5.10017 11.0848C5.27366 10.9113 5.27366 10.63 5.10017 10.4565L3.24732 8.60369H14.2023C14.3365 8.60369 14.4453 8.49487 14.4453 8.36063V7.64032C14.4453 7.50609 14.3365 7.39727 14.2023 7.39727H3.33027L5.15569 5.57185Z" fill="#1C1D1E"/>
</g>
</svg>
