<svg width="16" height="16" viewBox="0 0 16 16" fill="none" xmlns="http://www.w3.org/2000/svg">
<path d="M10.6606 14.287C10.3691 12.6227 9.88307 10.8975 9.20266 9.11156H9.16625C9.05698 9.16021 8.9112 9.22099 8.72891 9.29391C8.53453 9.36672 8.18224 9.53677 7.67203 9.80406C7.14964 10.0714 6.66974 10.3569 6.23234 10.6606C5.79495 10.9644 5.34542 11.3592 4.88375 11.8452C4.41 12.3432 4.05161 12.8595 3.80859 13.3941L3.64469 13.2666C4.92031 14.3114 6.37208 14.8337 8 14.8337C8.91115 14.8337 9.79802 14.6515 10.6606 14.287ZM8.72891 7.98172C8.58318 7.64161 8.40094 7.25286 8.18219 6.81547C6.01969 7.45932 3.68714 7.78125 1.18453 7.78125C1.17234 7.8299 1.16625 7.90281 1.16625 8C1.16625 8.8626 1.31813 9.68266 1.62188 10.4602C1.92563 11.2498 2.35693 11.9545 2.91578 12.5741C3.26807 11.9545 3.69932 11.3713 4.20953 10.8245C4.71984 10.2901 5.21187 9.8588 5.68563 9.53078C6.15948 9.20276 6.61505 8.92333 7.05234 8.6925C7.47755 8.46167 7.81776 8.29766 8.07297 8.20047L8.47375 8.05469C8.49813 8.05469 8.54068 8.04255 8.60141 8.01828C8.66214 8.00609 8.70464 7.99391 8.72891 7.98172ZM7.61734 5.75859C6.7912 4.28859 5.94682 2.97651 5.08422 1.82234C4.12453 2.28401 3.31057 2.93396 2.64234 3.77219C1.97422 4.61052 1.53078 5.55208 1.31203 6.59688C3.4138 6.59688 5.51557 6.31745 7.61734 5.75859ZM14.7427 9.09344C13.2847 8.66823 11.8633 8.56495 10.4784 8.78359C11.0858 10.448 11.5353 12.0759 11.8269 13.6675C12.5923 13.145 13.2362 12.4829 13.7586 11.6811C14.2688 10.8914 14.5968 10.0289 14.7427 9.09344ZM12.5011 2.87922C11.2255 1.73724 9.7251 1.16625 8 1.16625C7.46542 1.16625 6.92479 1.23307 6.37813 1.36672C7.28927 2.54516 8.14578 3.87547 8.94766 5.35766C9.42141 5.17536 9.87089 4.96276 10.2961 4.71984C10.7213 4.47682 11.0615 4.25812 11.3166 4.06375C11.5596 3.88156 11.7844 3.68719 11.9909 3.48062C12.1974 3.27406 12.3249 3.13438 12.3736 3.06156L12.5011 2.87922ZM14.8337 7.92703C14.8095 6.32339 14.2931 4.90198 13.2847 3.66281L13.2666 3.68109C13.2058 3.75401 13.139 3.83297 13.0661 3.91797C12.9932 4.01516 12.8413 4.17312 12.6105 4.39187C12.3796 4.61052 12.1367 4.81703 11.8816 5.01141C11.6143 5.21797 11.268 5.4488 10.8428 5.70391C10.4054 5.95901 9.94375 6.18375 9.45781 6.37813C9.6401 6.7426 9.79807 7.07062 9.93172 7.36219C9.9438 7.39865 9.96807 7.45333 10.0045 7.52625C10.0288 7.61125 10.0531 7.67198 10.0775 7.70844C10.3204 7.67198 10.5755 7.64766 10.8428 7.63547C11.1101 7.62339 11.3652 7.61734 11.6081 7.61734C11.8511 7.61734 12.0942 7.62339 12.3372 7.63547C12.568 7.64766 12.7867 7.65984 12.9931 7.67203C13.1997 7.6963 13.4002 7.71453 13.5945 7.72672C13.7767 7.75099 13.9407 7.77526 14.0866 7.79953C14.2324 7.8238 14.3599 7.84203 14.4692 7.85422C14.5664 7.87849 14.6515 7.89672 14.7244 7.90891L14.8337 7.92703ZM16 8C16 9.45781 15.6416 10.7942 14.9248 12.0091C14.2081 13.2361 13.2361 14.2081 12.0091 14.9248C10.7821 15.6416 9.44573 16 8 16C6.54219 16 5.20583 15.6416 3.99094 14.9248C2.76385 14.2081 1.79193 13.2361 1.07516 12.0091C0.358385 10.7942 0 9.45781 0 8C0 6.55427 0.358385 5.21792 1.07516 3.99094C1.79193 2.76385 2.76385 1.79193 3.99094 1.07516C5.20583 0.358385 6.54219 0 8 0C9.44573 0 10.7821 0.358385 12.0091 1.07516C13.2361 1.79193 14.2081 2.76385 14.9248 3.99094C15.6416 5.21792 16 6.55427 16 8Z" fill="#666666"/>
</svg>
