<svg width="16" height="16" viewBox="0 0 16 16" fill="none" xmlns="http://www.w3.org/2000/svg">
<path d="M15.9997 8.19893C16.015 9.93355 15.4773 11.6259 14.4683 13.0186C13.4966 14.41 12.1176 15.448 10.5314 15.9819C10.4617 16.0019 10.3885 16.0054 10.3172 15.9922C10.246 15.979 10.1786 15.9495 10.12 15.9058C10.0777 15.8645 10.0445 15.8144 10.0228 15.7588C10.0011 15.7032 9.99141 15.6435 9.99432 15.5837V13.3349C10.0171 13.0568 9.98037 12.777 9.88661 12.515C9.79284 12.253 9.64434 12.0151 9.45149 11.8181C9.80972 11.7821 10.1649 11.7195 10.5143 11.6307C10.8572 11.5364 11.1859 11.3946 11.4914 11.2091C11.8114 11.0301 12.0962 10.7919 12.3313 10.5063C12.5895 10.172 12.7834 9.7904 12.9027 9.3819C13.0543 8.85946 13.1275 8.31642 13.1198 7.77142C13.1377 6.95593 12.8398 6.16637 12.2913 5.57532C12.419 5.22475 12.4776 4.85176 12.4639 4.47785C12.4501 4.10394 12.3643 3.73652 12.2113 3.39678C11.9263 3.34352 11.6322 3.38454 11.3714 3.51391C11.0371 3.63712 10.7155 3.79405 10.4114 3.98241L10.0172 4.23423C8.70899 3.85941 7.32558 3.85941 6.0174 4.23423C5.90312 4.15224 5.76027 4.0644 5.57743 3.94727C5.2928 3.77723 4.9946 3.63226 4.68605 3.51391C4.40939 3.36993 4.09557 3.31871 3.78896 3.3675C3.63641 3.7106 3.55134 4.08116 3.53859 4.45798C3.52585 4.8348 3.58568 5.2105 3.71468 5.5636C3.17385 6.16388 2.87921 6.95447 2.89187 7.77142C2.88372 8.31261 2.95696 8.85185 3.109 9.37018C3.23299 9.77671 3.42646 10.1574 3.6804 10.4946C3.91028 10.7886 4.19604 11.0317 4.52035 11.2091C4.82979 11.3863 5.1575 11.5277 5.49743 11.6307C5.84865 11.7199 6.20578 11.7825 6.56594 11.8181C6.26687 12.1068 6.08352 12.4993 6.05169 12.9191C5.90137 12.9924 5.74171 13.0437 5.57743 13.0713C5.38905 13.1077 5.19771 13.1253 5.00603 13.1241C4.74353 13.1258 4.48732 13.0417 4.27465 12.8839C4.03784 12.708 3.84257 12.4799 3.70325 12.2163C3.57716 11.9956 3.40555 11.8057 3.20042 11.66C3.04756 11.5397 2.87268 11.4521 2.68617 11.4023H2.48046C2.37744 11.3962 2.2743 11.4122 2.17762 11.4492C2.12049 11.4843 2.10334 11.5253 2.1262 11.5721C2.15325 11.6244 2.18582 11.6735 2.22334 11.7185C2.26472 11.7679 2.31065 11.813 2.36047 11.8532L2.43475 11.9001C2.61409 11.999 2.77012 12.1369 2.89187 12.3042C3.0194 12.471 3.12862 12.6517 3.21756 12.843L3.32042 13.0889C3.40149 13.3531 3.56136 13.5845 3.77753 13.7507C3.98314 13.9034 4.21929 14.0074 4.46892 14.0552C4.7057 14.106 4.94697 14.1315 5.18888 14.1313C5.38015 14.1349 5.57136 14.1212 5.76027 14.0903L6.00026 14.0493V15.5837C6.00135 15.6443 5.98966 15.7045 5.96599 15.7601C5.94233 15.8157 5.90724 15.8654 5.86313 15.9058C5.80336 15.9492 5.73498 15.9785 5.66288 15.9917C5.59077 16.0048 5.51671 16.0015 5.44601 15.9819C3.86476 15.4411 2.49341 14.3967 1.53195 13.0011C0.51781 11.6177 -0.0206805 9.92909 0.000607771 8.19893C-0.00773672 6.75829 0.363383 5.34204 1.07483 4.09953C1.77356 2.85203 2.78319 1.81725 4.00038 1.10112C5.21269 0.371953 6.59452 -0.00841123 8.00014 0.000141104C9.40577 -0.00841123 10.7876 0.371953 11.9999 1.10112C13.2171 1.81725 14.2267 2.85203 14.9255 4.09953C15.6374 5.34182 16.0086 6.75822 15.9997 8.19893Z" fill="#666666"/>
</svg>
