<svg width="16" height="16" viewBox="0 0 16 16" fill="none" xmlns="http://www.w3.org/2000/svg">
<path d="M5.47227 7.97938C5.47277 7.6478 5.53859 7.31956 5.66597 7.01343C5.79335 6.70729 5.97979 6.42924 6.21465 6.19517C6.44951 5.96111 6.72819 5.7756 7.03475 5.64926C7.34132 5.52291 7.66978 5.45821 8.00136 5.45883C8.33286 5.45833 8.66122 5.52313 8.96768 5.64953C9.27414 5.77593 9.5527 5.96145 9.78746 6.19551C10.0222 6.42956 10.2086 6.70757 10.3359 7.01364C10.4632 7.31972 10.529 7.64788 10.5295 7.97938C10.5295 8.64723 10.2639 9.28851 9.78956 9.76094C9.31524 10.2334 8.67205 10.4999 8.00136 10.5009C7.66973 10.5014 7.34126 10.4366 7.03468 10.3101C6.72811 10.1837 6.44944 9.99807 6.2146 9.76393C5.97975 9.52978 5.79332 9.25168 5.66595 8.94548C5.53858 8.63929 5.47277 8.31101 5.47227 7.97938V7.97938ZM4.10622 7.97938C4.10579 8.48928 4.20614 8.99423 4.4015 9.46521C4.59687 9.9362 4.88339 10.3639 5.2446 10.7238C5.97505 11.4524 6.96639 11.8622 8.00136 11.8631C9.03459 11.8628 10.0257 11.4535 10.7581 10.7248C11.1194 10.3648 11.406 9.93688 11.6014 9.46572C11.7968 8.99457 11.8971 8.48944 11.8965 7.97938C11.8969 7.46949 11.7966 6.96454 11.6012 6.49355C11.4059 6.02257 11.1193 5.59484 10.7581 5.23495C10.0255 4.50595 9.03397 4.09667 8.00041 4.09657C5.84699 4.09847 4.10243 5.83734 4.10432 7.97938H4.10622ZM11.1404 3.94289C11.1404 4.26638 11.314 4.56615 11.5958 4.72837C11.7344 4.80784 11.8914 4.84965 12.0511 4.84965C12.2109 4.84965 12.3679 4.80784 12.5065 4.72837C12.6799 4.62911 12.8157 4.47521 12.8925 4.2907C12.9693 4.1062 12.9829 3.90145 12.9311 3.70842C12.8793 3.51538 12.7651 3.34492 12.6062 3.22362C12.4474 3.10232 12.2529 3.03701 12.053 3.03789C11.5502 3.03694 11.1414 3.44201 11.1404 3.94289ZM4.93629 14.1351C4.19634 14.101 3.79506 13.9786 3.52755 13.8743C3.19828 13.7535 2.90035 13.5602 2.65574 13.3089C2.40348 13.0656 2.20926 12.7686 2.0875 12.4399C1.98315 12.1743 1.85983 11.773 1.82757 11.0359C1.78963 10.2391 1.78299 10 1.78299 7.98033C1.78299 5.96066 1.79058 5.72255 1.82662 4.92569C1.86078 4.18764 1.9841 3.78732 2.0875 3.52169C2.20988 3.19251 2.4034 2.89559 2.65574 2.65084C2.90049 2.39945 3.19837 2.20592 3.5285 2.0845C3.79601 1.98109 4.19729 1.85872 4.93723 1.82552C5.73599 1.78757 5.976 1.78093 8.00136 1.78093C10.0267 1.78093 10.2667 1.78852 11.0655 1.82552C11.8054 1.85967 12.2077 1.98204 12.4752 2.0845C12.829 2.2211 13.0823 2.38711 13.3479 2.65084C13.6136 2.91456 13.7777 3.1669 13.9152 3.52075C14.0196 3.78637 14.1429 4.18764 14.1761 4.92474C14.214 5.72255 14.2207 5.96161 14.2207 7.97938C14.2207 10 14.2131 10.2391 14.1761 11.0359C14.1429 11.773 14.0186 12.1743 13.9152 12.4399C13.7938 12.7691 13.6003 13.066 13.3479 13.3098C13.1027 13.5607 12.8045 13.7535 12.4752 13.8743C12.2077 13.9786 11.8064 14.1019 11.0664 14.1351C10.2667 14.1731 10.0267 14.1797 8.00136 14.1797C5.976 14.1788 5.73599 14.1712 4.93723 14.1351H4.93629ZM3.0333 0.816156C2.52673 1.00589 2.06758 1.30376 1.68907 1.68891C1.3028 2.0653 1.0039 2.52191 0.81347 3.0265C0.625638 3.50746 0.497571 4.05768 0.460574 4.86213C0.424526 5.66848 0.415039 5.92651 0.415039 7.97938C0.415039 10.0323 0.424526 10.2912 0.462471 11.0966C0.49852 11.902 0.626587 12.4513 0.81347 12.9323C1.00794 13.4303 1.26692 13.8525 1.68907 14.2718C2.06853 14.656 2.52673 14.9538 3.0333 15.1445C3.51616 15.3304 4.06638 15.4585 4.87368 15.4955C5.68382 15.5316 5.9409 15.541 8.00136 15.541C10.0618 15.541 10.3199 15.5335 11.129 15.4955C11.9354 15.4585 12.4875 15.3304 12.9694 15.1445C13.4755 14.9546 13.9342 14.6568 14.3137 14.2718C14.6988 13.8932 14.9967 13.4369 15.1874 12.9323C15.3752 12.4513 15.5052 11.902 15.5412 11.0966C15.5782 10.2903 15.5867 10.0341 15.5867 7.97938C15.5867 5.92651 15.5772 5.66848 15.5412 4.86213C15.5042 4.05768 15.3761 3.50746 15.1883 3.02745C14.9977 2.52265 14.6992 2.06552 14.3137 1.68796C13.9345 1.30325 13.4761 1.00575 12.9704 0.816156C12.4866 0.629273 11.9363 0.501205 11.13 0.465157C10.3199 0.427211 10.0609 0.417725 8.00041 0.417725C5.93995 0.417725 5.68287 0.427211 4.87368 0.465157C4.06733 0.502154 3.51521 0.629273 3.0333 0.816156Z" fill="#666666"/>
</svg>
