<svg width="16" height="16" viewBox="0 0 16 16" fill="none" xmlns="http://www.w3.org/2000/svg">
<path fill-rule="evenodd" clip-rule="evenodd" d="M8 16C12.4183 16 16 12.4183 16 8C16 3.58172 12.4183 0 8 0C3.58172 0 0 3.58172 0 8C0 12.4183 3.58172 16 8 16ZM10.2708 6.42183C10.152 6.40839 10.0333 6.40093 9.91308 6.40093V6.40018C8.15149 6.40018 6.75955 7.71544 6.75955 9.33525C6.76046 9.59814 6.79894 9.85956 6.8738 10.1116C6.7588 10.1205 6.6438 10.1265 6.52731 10.1265C6.14137 10.1265 5.81873 10.0606 5.453 9.98595C5.37998 9.97105 5.30525 9.95579 5.22795 9.94063L3.93159 10.5901L4.30273 9.47484C3.37377 8.82692 2.81818 7.99088 2.81818 6.97122C2.81818 5.20734 4.48867 3.81818 6.52731 3.81818C8.35162 3.81818 9.94967 4.92817 10.2708 6.42183ZM8.11184 5.36295C8.04226 5.33414 7.96768 5.31931 7.89237 5.31931C7.74027 5.31931 7.59439 5.37971 7.48684 5.48722C7.37929 5.59473 7.31886 5.74055 7.31886 5.89259C7.31886 6.04463 7.37929 6.19045 7.48684 6.29796C7.59439 6.40547 7.74027 6.46587 7.89237 6.46587C7.96768 6.46587 8.04226 6.45104 8.11184 6.42223C8.18142 6.39342 8.24465 6.35119 8.2979 6.29796C8.35116 6.24473 8.3934 6.18153 8.42222 6.11197C8.45104 6.04242 8.46588 5.96787 8.46588 5.89259C8.46588 5.81731 8.45104 5.74276 8.42222 5.6732C8.3934 5.60365 8.35116 5.54045 8.2979 5.48722C8.24465 5.43399 8.18142 5.39176 8.11184 5.36295ZM5.07793 6.43417C5.14751 6.46298 5.22209 6.47781 5.2974 6.47781C5.44951 6.47781 5.59538 6.41741 5.70293 6.3099C5.81049 6.20239 5.87091 6.05658 5.87091 5.90453C5.87091 5.75249 5.81049 5.60667 5.70293 5.49916C5.59538 5.39165 5.44951 5.33125 5.2974 5.33125C5.22209 5.33125 5.14751 5.34608 5.07793 5.37489C5.00835 5.4037 4.94513 5.44593 4.89187 5.49916C4.83862 5.5524 4.79637 5.61559 4.76755 5.68515C4.73873 5.7547 4.7239 5.82925 4.7239 5.90453C4.7239 5.97982 4.73873 6.05436 4.76755 6.12392C4.79637 6.19347 4.83862 6.25667 4.89187 6.3099C4.94513 6.36314 5.00835 6.40536 5.07793 6.43417ZM10.1214 6.61143C11.7889 6.61143 13.2727 7.81994 13.2727 9.30241C13.2727 10.1384 12.7179 10.8789 11.9734 11.4373L12.2527 12.3636L11.2348 11.8068C10.8637 11.9001 10.4911 11.9926 10.1222 11.9926C8.35685 11.9926 6.96714 10.7879 6.96714 9.30241C6.96714 7.81994 8.35685 6.61143 10.1214 6.61143ZM8.99657 8.85555C9.04613 8.87607 9.09925 8.88663 9.15289 8.88663C9.26122 8.88663 9.36512 8.84362 9.44172 8.76704C9.51833 8.69047 9.56136 8.58661 9.56136 8.47832C9.56136 8.37003 9.51833 8.26617 9.44172 8.1896C9.36512 8.11303 9.26122 8.07001 9.15289 8.07001C9.09925 8.07001 9.04613 8.08057 8.99657 8.10109C8.94701 8.12161 8.90199 8.15168 8.86405 8.1896C8.82612 8.22752 8.79604 8.27253 8.77551 8.32207C8.75498 8.37161 8.74442 8.4247 8.74442 8.47832C8.74442 8.53194 8.75498 8.58504 8.77551 8.63458C8.79604 8.68411 8.82612 8.72913 8.86405 8.76704C8.90199 8.80496 8.94701 8.83503 8.99657 8.85555ZM10.9027 8.79018C10.9793 8.86676 11.0832 8.90977 11.1915 8.90977C11.2999 8.90977 11.4038 8.86676 11.4804 8.79018C11.557 8.71361 11.6 8.60975 11.6 8.50146C11.6 8.39317 11.557 8.28931 11.4804 8.21274C11.4038 8.13617 11.2999 8.09315 11.1915 8.09315C11.0832 8.09315 10.9793 8.13617 10.9027 8.21274C10.8261 8.28931 10.7831 8.39317 10.7831 8.50146C10.7831 8.60975 10.8261 8.71361 10.9027 8.79018Z" fill="#666666"/>
</svg>
