<svg width="82" height="20" viewBox="0 0 82 20" fill="none" xmlns="http://www.w3.org/2000/svg">
<path d="M8.36 17.16C6.96 17.16 5.69333 16.8533 4.56 16.24C3.44 15.6133 2.56 14.76 1.92 13.68C1.28 12.5867 0.96 11.36 0.96 10C0.96 8.64 1.28 7.42 1.92 6.34C2.56 5.24667 3.44667 4.39333 4.58 3.78C5.71333 3.15333 6.98 2.84 8.38 2.84C9.47333 2.84 10.4733 3.02667 11.38 3.4C12.2867 3.76 13.06 4.3 13.7 5.02L12.4 6.28C11.3467 5.17333 10.0333 4.62 8.46 4.62C7.42 4.62 6.48 4.85333 5.64 5.32C4.8 5.78667 4.14 6.43333 3.66 7.26C3.19333 8.07333 2.96 8.98667 2.96 10C2.96 11.0133 3.19333 11.9333 3.66 12.76C4.14 13.5733 4.8 14.2133 5.64 14.68C6.48 15.1467 7.42 15.38 8.46 15.38C10.02 15.38 11.3333 14.82 12.4 13.7L13.7 14.96C13.06 15.68 12.28 16.2267 11.36 16.6C10.4533 16.9733 9.45333 17.16 8.36 17.16ZM21.9331 6.3C23.2798 6.3 24.3465 6.69333 25.1331 7.48C25.9331 8.25333 26.3331 9.39333 26.3331 10.9V17H24.4131V11.12C24.4131 10.0933 24.1665 9.32 23.6731 8.8C23.1798 8.28 22.4731 8.02 21.5531 8.02C20.5131 8.02 19.6931 8.32667 19.0931 8.94C18.4931 9.54 18.1931 10.4067 18.1931 11.54V17H16.2731V2.16H18.1931V7.9C18.5931 7.39333 19.1131 7 19.7531 6.72C20.4065 6.44 21.1331 6.3 21.9331 6.3ZM33.7464 6.3C35.2131 6.3 36.3331 6.66 37.1064 7.38C37.8931 8.1 38.2864 9.17333 38.2864 10.6V17H36.4664V15.6C36.1464 16.0933 35.6864 16.4733 35.0864 16.74C34.4997 16.9933 33.7997 17.12 32.9864 17.12C31.7997 17.12 30.8464 16.8333 30.1264 16.26C29.4197 15.6867 29.0664 14.9333 29.0664 14C29.0664 13.0667 29.4064 12.32 30.0864 11.76C30.7664 11.1867 31.8464 10.9 33.3264 10.9H36.3664V10.52C36.3664 9.69333 36.1264 9.06 35.6464 8.62C35.1664 8.18 34.4597 7.96 33.5264 7.96C32.8997 7.96 32.2864 8.06667 31.6864 8.28C31.0864 8.48 30.5797 8.75333 30.1664 9.1L29.3664 7.66C29.9131 7.22 30.5664 6.88667 31.3264 6.66C32.0864 6.42 32.8931 6.3 33.7464 6.3ZM33.3064 15.64C34.0397 15.64 34.6731 15.48 35.2064 15.16C35.7397 14.8267 36.1264 14.36 36.3664 13.76V12.28H33.4064C31.7797 12.28 30.9664 12.8267 30.9664 13.92C30.9664 14.4533 31.1731 14.8733 31.5864 15.18C31.9997 15.4867 32.5731 15.64 33.3064 15.64ZM43.6795 8.18C44.0129 7.56667 44.5062 7.1 45.1595 6.78C45.8129 6.46 46.6062 6.3 47.5395 6.3V8.16C47.4329 8.14667 47.2862 8.14 47.0995 8.14C46.0595 8.14 45.2395 8.45333 44.6395 9.08C44.0529 9.69333 43.7595 10.5733 43.7595 11.72V17H41.8395V6.4H43.6795V8.18ZM49.9059 2.16H51.8259V17H49.9059V2.16ZM60.0319 17.12C58.9785 17.12 58.0319 16.8867 57.1919 16.42C56.3519 15.9533 55.6919 15.3133 55.2119 14.5C54.7452 13.6733 54.5119 12.74 54.5119 11.7C54.5119 10.66 54.7452 9.73333 55.2119 8.92C55.6919 8.09333 56.3519 7.45333 57.1919 7C58.0319 6.53333 58.9785 6.3 60.0319 6.3C61.0852 6.3 62.0252 6.53333 62.8519 7C63.6919 7.45333 64.3452 8.09333 64.8119 8.92C65.2919 9.73333 65.5319 10.66 65.5319 11.7C65.5319 12.74 65.2919 13.6733 64.8119 14.5C64.3452 15.3133 63.6919 15.9533 62.8519 16.42C62.0252 16.8867 61.0852 17.12 60.0319 17.12ZM60.0319 15.44C60.7119 15.44 61.3185 15.2867 61.8519 14.98C62.3985 14.66 62.8252 14.22 63.1319 13.66C63.4385 13.0867 63.5919 12.4333 63.5919 11.7C63.5919 10.9667 63.4385 10.32 63.1319 9.76C62.8252 9.18667 62.3985 8.74667 61.8519 8.44C61.3185 8.13333 60.7119 7.98 60.0319 7.98C59.3519 7.98 58.7385 8.13333 58.1919 8.44C57.6585 8.74667 57.2319 9.18667 56.9119 9.76C56.6052 10.32 56.4519 10.9667 56.4519 11.7C56.4519 12.4333 56.6052 13.0867 56.9119 13.66C57.2319 14.22 57.6585 14.66 58.1919 14.98C58.7385 15.2867 59.3519 15.44 60.0319 15.44ZM75.8909 15.42V17H67.0109V15.76L73.2709 7.98H67.1309V6.4H75.7309V7.66L69.4709 15.42H75.8909ZM78.9792 17.12C78.6059 17.12 78.2859 16.9933 78.0192 16.74C77.7526 16.4733 77.6192 16.14 77.6192 15.74C77.6192 15.3533 77.7526 15.0333 78.0192 14.78C78.2859 14.5133 78.6059 14.38 78.9792 14.38C79.3526 14.38 79.6659 14.5067 79.9192 14.76C80.1726 15.0133 80.2992 15.34 80.2992 15.74C80.2992 16.14 80.1659 16.4733 79.8992 16.74C79.6459 16.9933 79.3392 17.12 78.9792 17.12Z" fill="white"/>
</svg>
